<?xml version="1.0" encoding="utf-8"?>
<!-- Generator: Adobe Illustrator 24.2.0, SVG Export Plug-In . SVG Version: 6.00 Build 0)  -->
<svg version="1.1" id="Camada_1" xmlns="http://www.w3.org/2000/svg" xmlns:xlink="http://www.w3.org/1999/xlink" x="0px" y="0px"
	 viewBox="0 0 78.67 69.89" style="enable-background:new 0 0 78.67 69.89;" xml:space="preserve">
<style type="text/css">
	.st0{fill:#0A8B0D;}
</style>
<path class="st0" d="M37.93,37.89l-0.38,3.38c-0.02,0.17,0.04,0.34,0.15,0.46c0.11,0.13,0.27,0.2,0.44,0.2h2.38
	c0.17,0,0.33-0.07,0.44-0.2c0.11-0.13,0.17-0.29,0.15-0.46l-0.38-3.38c0.61-0.44,0.97-1.14,0.97-1.91c0-1.31-1.07-2.38-2.38-2.38
	c-1.31,0-2.38,1.07-2.38,2.38C36.95,36.74,37.32,37.44,37.93,37.89z M39.34,34.78c0.66,0,1.19,0.53,1.19,1.19
	c0,0.46-0.26,0.86-0.68,1.07c-0.23,0.11-0.36,0.35-0.33,0.6l0.34,3.09h-1.05l0.34-3.09c0.03-0.25-0.11-0.49-0.33-0.6
	c-0.42-0.2-0.68-0.61-0.68-1.07C38.14,35.32,38.68,34.78,39.34,34.78z"/>
<path class="st0" d="M49.45,28.83h-1.79v-2.38c0-4.59-3.74-8.33-8.33-8.33c-4.59,0-8.33,3.74-8.33,8.33v2.38h-1.79
	c-0.33,0-0.6,0.27-0.6,0.6V44.3c0,1.31,1.07,2.38,2.38,2.38h16.66c1.31,0,2.38-1.07,2.38-2.38V29.43
	C50.05,29.1,49.78,28.83,49.45,28.83z M32.19,26.45c0-3.94,3.2-7.14,7.14-7.14c3.94,0,7.14,3.2,7.14,7.14v2.38h-1.19v-2.38
	c0-3.28-2.67-5.95-5.95-5.95c-3.28,0-5.95,2.67-5.95,5.95v2.38h-1.19V26.45z M44.1,26.45v2.38h-9.52v-2.38
	c0-2.63,2.14-4.76,4.76-4.76C41.96,21.69,44.1,23.83,44.1,26.45z M48.86,44.3c0,0.66-0.53,1.19-1.19,1.19H31
	c-0.66,0-1.19-0.53-1.19-1.19V30.02h19.04V44.3z"/>
</svg>
