<?xml version="1.0" encoding="utf-8"?>
<!-- Generator: Adobe Illustrator 24.2.0, SVG Export Plug-In . SVG Version: 6.00 Build 0)  -->
<svg version="1.1" id="Camada_1" xmlns="http://www.w3.org/2000/svg" xmlns:xlink="http://www.w3.org/1999/xlink" x="0px" y="0px"
	 viewBox="0 0 78.67 69.89" style="enable-background:new 0 0 78.67 69.89;" xml:space="preserve">
<style type="text/css">
	.st0{clip-path:url(#SVGID_2_);}
	.st1{fill:#108C38;}
	.st2{fill:none;stroke:#108C38;stroke-width:2;}
	.st3{fill-rule:evenodd;clip-rule:evenodd;fill:#108C38;}
</style>
<g>
	<defs>
		<rect id="SVGID_1_" x="15.53" y="19.1" width="39" height="39"/>
	</defs>
	<clipPath id="SVGID_2_">
		<use xlink:href="#SVGID_1_"  style="overflow:visible;"/>
	</clipPath>
	<g class="st0">
		<path class="st1" d="M53.23,27.92c-0.78-0.82-1.85-1.3-3.08-1.3H44v-0.07c0-0.93-0.37-1.82-1-2.41c-0.63-0.63-1.48-1-2.41-1H29.47
			c-0.96,0-1.82,0.37-2.45,1c-0.63,0.63-1,1.48-1,2.41v0.07H19.9c-1.22,0-2.3,0.48-3.08,1.3c-0.78,0.78-1.3,1.89-1.3,3.08v18.46
			c0,1.22,0.48,2.3,1.3,3.08c0.78,0.78,1.89,1.3,3.08,1.3h30.25c1.22,0,2.3-0.48,3.08-1.3c0.78-0.78,1.3-1.89,1.3-3.08V31
			C54.53,29.77,54.05,28.7,53.23,27.92z M52.6,49.46h-0.04c0,0.67-0.26,1.26-0.7,1.71c-0.44,0.44-1.04,0.7-1.71,0.7H19.9
			c-0.67,0-1.26-0.26-1.71-0.7c-0.44-0.44-0.7-1.04-0.7-1.71V31c0-0.67,0.26-1.26,0.7-1.71c0.44-0.44,1.04-0.7,1.71-0.7h7.15
			c0.56,0,1-0.44,1-1v-1.08c0-0.41,0.15-0.78,0.41-1.04c0.26-0.26,0.63-0.41,1.04-0.41h11.08c0.41,0,0.78,0.15,1.04,0.41
			c0.26,0.26,0.41,0.63,0.41,1.04v1.08c0,0.56,0.44,1,1,1h7.15c0.67,0,1.26,0.26,1.71,0.7c0.44,0.44,0.7,1.04,0.7,1.71V49.46z"/>
		<path class="st1" d="M35.03,31.23c-2.52,0-4.82,1.04-6.45,2.67c-1.67,1.67-2.67,3.93-2.67,6.45s1.04,4.82,2.67,6.45
			c1.67,1.67,3.93,2.67,6.45,2.67c2.52,0,4.82-1.04,6.45-2.67c1.67-1.67,2.67-3.93,2.67-6.45s-1.04-4.82-2.67-6.45
			C39.85,32.26,37.55,31.23,35.03,31.23z M40.07,45.43c-1.3,1.26-3.08,2.08-5.04,2.08c-1.96,0-3.74-0.82-5.04-2.08
			c-1.3-1.3-2.08-3.08-2.08-5.04c0-1.96,0.82-3.74,2.08-5.04c1.3-1.3,3.08-2.08,5.04-2.08c1.96,0,3.74,0.82,5.04,2.08
			c1.3,1.3,2.08,3.08,2.08,5.04C42.18,42.35,41.37,44.13,40.07,45.43z"/>
		<path class="st1" d="M48.22,34.82c1,0,1.82-0.81,1.82-1.82c0-1-0.81-1.82-1.82-1.82c-1,0-1.82,0.81-1.82,1.82
			C46.41,34.01,47.22,34.82,48.22,34.82z"/>
	</g>
</g>
<circle class="st2" cx="57.03" cy="18.6" r="6.5"/>
<path class="st3" d="M60.96,19.35l0.03-1.83l-3.01-0.14l0.14-3.01l-1.83-0.03l-0.14,3.01l-3.01-0.14l-0.03,1.83l3.01,0.14
	l-0.14,3.01l1.83,0.03l0.14-3.01L60.96,19.35z"/>
</svg>
