<?xml version="1.0" encoding="utf-8"?>
<!-- Generator: Adobe Illustrator 24.2.0, SVG Export Plug-In . SVG Version: 6.00 Build 0)  -->
<svg version="1.1" id="Camada_1" xmlns="http://www.w3.org/2000/svg" xmlns:xlink="http://www.w3.org/1999/xlink" x="0px" y="0px"
	 viewBox="0 0 78.67 69.89" style="enable-background:new 0 0 78.67 69.89;" xml:space="preserve">
<style type="text/css">
	.st0{fill:#0A8B0D;}
</style>
<path class="st0" d="M47.1,24.83H28.35c-1.45,0-2.62,1.18-2.62,2.62V38.7c0,1.45,1.18,2.62,2.62,2.62H47.1
	c1.45,0,2.62-1.18,2.62-2.62V27.45C49.73,26.01,48.55,24.83,47.1,24.83z M28.35,26.33H47.1c0.62,0,1.12,0.5,1.12,1.12v1.5h-21v-1.5
	C27.23,26.83,27.73,26.33,28.35,26.33z M47.1,39.83H28.35c-0.62,0-1.12-0.5-1.12-1.12v-8.25h21v8.25
	C48.23,39.32,47.72,39.83,47.1,39.83z"/>
<path class="st0" d="M30.98,37.58h-0.75c-0.41,0-0.75-0.34-0.75-0.75v-0.75c0-0.41,0.34-0.75,0.75-0.75h0.75
	c0.41,0,0.75,0.34,0.75,0.75v0.75C31.73,37.24,31.39,37.58,30.98,37.58z"/>
</svg>
