<?xml version="1.0" encoding="utf-8"?>
<!-- Generator: Adobe Illustrator 24.2.0, SVG Export Plug-In . SVG Version: 6.00 Build 0)  -->
<svg version="1.1" id="Camada_1" xmlns="http://www.w3.org/2000/svg" xmlns:xlink="http://www.w3.org/1999/xlink" x="0px" y="0px"
	 viewBox="0 0 78.67 69.89" style="enable-background:new 0 0 78.67 69.89;" xml:space="preserve">
<style type="text/css">
	.st0{clip-path:url(#SVGID_2_);}
	.st1{fill:#666666;}
	.st2{fill:#0A8B0D;}
	.st3{fill-rule:evenodd;clip-rule:evenodd;fill:#FFFFFF;}
</style>
<g>
	<defs>
		<rect id="SVGID_1_" x="26.83" y="20.45" width="25.21" height="25.21"/>
	</defs>
	<clipPath id="SVGID_2_">
		<use xlink:href="#SVGID_1_"  style="overflow:visible;"/>
	</clipPath>
	<g class="st0">
		<path class="st1" d="M49.33,20.45h-19.8c-1.49,0-2.7,1.21-2.7,2.7v14.4c0,1.49,1.21,2.7,2.7,2.7h3.2l-0.49,4.4
			c-0.05,0.49,0.3,0.94,0.8,0.99c0.26,0.03,0.51-0.05,0.7-0.23l5.74-5.17h9.86c1.49,0,2.7-1.21,2.7-2.7v-14.4
			C52.03,21.66,50.82,20.45,49.33,20.45z M50.23,37.56c0,0.5-0.4,0.9-0.9,0.9h-10.2c-0.22,0-0.44,0.08-0.6,0.23l-4.24,3.82
			l0.34-3.05c0.06-0.49-0.3-0.94-0.79-0.99c-0.03,0-0.07-0.01-0.1-0.01h-4.2c-0.5,0-0.9-0.4-0.9-0.9v-14.4c0-0.5,0.4-0.9,0.9-0.9
			h19.8c0.5,0,0.9,0.4,0.9,0.9L50.23,37.56L50.23,37.56z"/>
	</g>
</g>
<circle class="st2" cx="51.53" cy="38.1" r="7.56"/>
<path class="st3" d="M50.52,39.71l-2.12-2.12L47.7,38.3l2.82,2.82l6.05-6.05l-0.71-0.71L50.52,39.71z"/>
</svg>
