<?xml version="1.0" encoding="utf-8"?>
<!-- Generator: Adobe Illustrator 24.2.0, SVG Export Plug-In . SVG Version: 6.00 Build 0)  -->
<svg version="1.1" id="Camada_1" xmlns="http://www.w3.org/2000/svg" xmlns:xlink="http://www.w3.org/1999/xlink" x="0px" y="0px"
	 viewBox="0 0 78.67 69.89" style="enable-background:new 0 0 78.67 69.89;" xml:space="preserve">
<style type="text/css">
	.st0{fill:#ADADAD;}
	.st1{fill:#D2D1D1;}
</style>
<path class="st0" d="M61.38,45.41h1.91l-1.35-1.32c-0.73-0.71-1.18-1.64-1.31-2.64c1.9-1.22,3.3-2.82,4.04-4.66
	c0.74-1.84,0.84-3.86,0.27-5.85c-0.68-2.39-2.28-4.56-4.5-6.13c-2.41-1.7-5.41-2.6-8.68-2.6c-4.12,0-7.59,1.15-10.03,3.34
	c-2.21,1.97-3.42,4.62-3.42,7.47c0,1.38,0.29,2.73,0.86,4.01c0.59,1.32,1.45,2.49,2.57,3.49c2.45,2.19,5.92,3.35,10.03,3.35
	c1.53,0,3.12-0.2,4.54-0.56C57.65,44.64,59.47,45.41,61.38,45.41z"/>
<path class="st1" d="M21.99,53.47h-2.76l1.95-1.95c1.05-1.05,1.71-2.42,1.89-3.9c-2.75-1.8-4.76-4.17-5.84-6.89
	c-1.08-2.72-1.21-5.71-0.39-8.65c0.98-3.53,3.29-6.74,6.5-9.06c3.48-2.51,7.82-3.84,12.54-3.84c5.95,0,10.96,1.71,14.49,4.93
	c3.19,2.91,4.94,6.83,4.94,11.04c0,2.05-0.42,4.04-1.24,5.92c-0.85,1.95-2.1,3.68-3.71,5.15c-3.54,3.24-8.55,4.95-14.49,4.95
	c-2.2,0-4.5-0.29-6.56-0.83C27.38,52.35,24.74,53.47,21.99,53.47z"/>
</svg>
