<?xml version="1.0" encoding="utf-8"?>
<!-- Generator: Adobe Illustrator 24.2.0, SVG Export Plug-In . SVG Version: 6.00 Build 0)  -->
<svg version="1.1" id="Camada_1" xmlns="http://www.w3.org/2000/svg" xmlns:xlink="http://www.w3.org/1999/xlink" x="0px" y="0px"
	 viewBox="0 0 78.67 69.89" style="enable-background:new 0 0 78.67 69.89;" xml:space="preserve">
<style type="text/css">
	.st0{clip-path:url(#SVGID_2_);}
	.st1{fill:#666666;}
	.st2{fill:#0A8B0D;}
	.st3{fill-rule:evenodd;clip-rule:evenodd;fill:#FFFFFF;}
</style>
<g>
	<defs>
		<rect id="SVGID_1_" x="26.74" y="21.33" width="25.21" height="25.21"/>
	</defs>
	<clipPath id="SVGID_2_">
		<use xlink:href="#SVGID_1_"  style="overflow:visible;"/>
	</clipPath>
	<g class="st0">
		<path class="st1" d="M39.35,21.33c-6.96,0-12.6,5.64-12.6,12.6c0,6.96,5.64,12.6,12.6,12.6c6.96,0,12.6-5.64,12.6-12.6
			C51.94,26.98,46.3,21.34,39.35,21.33z M39.35,44.74c-5.97,0-10.8-4.84-10.8-10.8c0-5.97,4.84-10.8,10.8-10.8
			c5.97,0,10.8,4.84,10.8,10.8C50.14,39.9,45.31,44.73,39.35,44.74z"/>
		<path class="st1" d="M39.35,25.84c-0.5,0-0.9,0.4-0.9,0.9v6.3h-6.3c-0.5,0-0.9,0.4-0.9,0.9c0,0.5,0.4,0.9,0.9,0.9h7.2
			c0.5,0,0.9-0.4,0.9-0.9v-7.2C40.25,26.24,39.84,25.84,39.35,25.84z"/>
	</g>
</g>
<circle class="st2" cx="50.44" cy="40.99" r="7.56"/>
<path class="st3" d="M49.43,42.61l-2.12-2.12l-0.71,0.71l2.82,2.82l6.05-6.05l-0.71-0.71L49.43,42.61z"/>
</svg>
