<?xml version="1.0" encoding="utf-8"?>
<!-- Generator: Adobe Illustrator 24.2.0, SVG Export Plug-In . SVG Version: 6.00 Build 0)  -->
<svg version="1.1" id="Camada_1" xmlns="http://www.w3.org/2000/svg" xmlns:xlink="http://www.w3.org/1999/xlink" x="0px" y="0px"
	 viewBox="0 0 78.67 69.89" style="enable-background:new 0 0 78.67 69.89;" xml:space="preserve">
<style type="text/css">
	.st0{fill:#108C38;}
</style>
<path class="st0" d="M55.24,39.43v-6.12l-5.02-0.99c-0.27-0.91-0.64-1.79-1.09-2.62l2.8-4.2l-4.32-4.32l-4.2,2.8
	c-0.84-0.45-1.71-0.82-2.62-1.09l-0.99-5.02h-6.12l-0.99,5.02c-0.91,0.27-1.79,0.64-2.62,1.09l-4.2-2.8l-4.32,4.32l2.8,4.2
	c-0.45,0.84-0.82,1.71-1.09,2.62l-5.02,0.99v6.12l5.02,0.99c0.27,0.91,0.64,1.79,1.09,2.62l-2.8,4.2l4.32,4.32l4.2-2.8
	c0.84,0.45,1.71,0.82,2.62,1.09l0.99,5.02h6.12l0.99-5.02c0.91-0.27,1.79-0.64,2.62-1.09l4.2,2.8l4.32-4.32l-2.8-4.2
	c0.45-0.84,0.82-1.71,1.09-2.62L55.24,39.43z M49.14,46.96l-1.81,1.81l-3.85-2.57c-1.95,1.18-2.6,1.41-4.56,1.89l-0.91,4.6h-2.55
	l-0.91-4.6c-2.23-0.55-2.84-0.85-4.56-1.89l-3.85,2.57l-1.81-1.81l2.57-3.85c-1.19-1.97-1.41-2.62-1.89-4.56l-4.6-0.91v-2.55
	l4.6-0.91c0.47-1.92,0.69-2.57,1.89-4.56l-2.57-3.85l1.81-1.81l3.85,2.57c1.97-1.19,2.62-1.41,4.56-1.89l0.91-4.6h2.55l0.91,4.6
	c2.23,0.55,2.85,0.86,4.56,1.89l3.85-2.57l1.81,1.81l-2.57,3.85c1.18,1.95,1.41,2.6,1.89,4.56l4.6,0.91v2.55l-4.6,0.91
	c-0.55,2.23-0.86,2.85-1.89,4.56L49.14,46.96z"/>
<path class="st0" d="M36.74,28.78c-4.18,0-7.59,3.4-7.59,7.59s3.4,7.59,7.59,7.59s7.59-3.4,7.59-7.59S40.92,28.78,36.74,28.78z
	 M36.74,41.79c-2.99,0-5.42-2.43-5.42-5.42c0-2.99,2.43-5.42,5.42-5.42s5.42,2.43,5.42,5.42C42.16,39.35,39.72,41.79,36.74,41.79z"
	/>
</svg>
