<?xml version="1.0" encoding="utf-8"?>
<!-- Generator: Adobe Illustrator 24.2.0, SVG Export Plug-In . SVG Version: 6.00 Build 0)  -->
<svg version="1.1" id="Camada_1" xmlns="http://www.w3.org/2000/svg" xmlns:xlink="http://www.w3.org/1999/xlink" x="0px" y="0px"
	 viewBox="0 0 78.67 69.89" style="enable-background:new 0 0 78.67 69.89;" xml:space="preserve">
<style type="text/css">
	.st0{fill:#0A8B0D;}
</style>
<path class="st0" d="M45.79,23.33h-4.12v-0.75c0-1.24-1.01-2.25-2.25-2.25h-3c-1.24,0-2.25,1.01-2.25,2.25v0.75h-4.12
	c-1.03,0-1.88,0.84-1.88,1.88v2.62c0,0.41,0.34,0.75,0.75,0.75h0.41l0.65,13.61c0.06,1.2,1.04,2.14,2.25,2.14h11.39
	c1.2,0,2.19-0.94,2.25-2.14l0.65-13.61h0.41c0.41,0,0.75-0.34,0.75-0.75V25.2C47.66,24.17,46.82,23.33,45.79,23.33z M35.66,22.58
	c0-0.41,0.34-0.75,0.75-0.75h3c0.41,0,0.75,0.34,0.75,0.75v0.75h-4.5V22.58z M29.66,25.2c0-0.21,0.17-0.38,0.38-0.38h15.75
	c0.21,0,0.38,0.17,0.38,0.38v1.88c-0.23,0-15.54,0-16.5,0V25.2z M44.36,42.11c-0.02,0.4-0.35,0.71-0.75,0.71H32.22
	c-0.4,0-0.73-0.31-0.75-0.71l-0.64-13.54H45L44.36,42.11z"/>
<path class="st0" d="M37.91,41.33c0.41,0,0.75-0.34,0.75-0.75v-9.75c0-0.41-0.34-0.75-0.75-0.75s-0.75,0.34-0.75,0.75v9.75
	C37.16,40.99,37.5,41.33,37.91,41.33z"/>
<path class="st0" d="M41.66,41.33c0.41,0,0.75-0.34,0.75-0.75v-9.75c0-0.41-0.34-0.75-0.75-0.75s-0.75,0.34-0.75,0.75v9.75
	C40.91,40.99,41.25,41.33,41.66,41.33z"/>
<path class="st0" d="M34.16,41.33c0.41,0,0.75-0.34,0.75-0.75v-9.75c0-0.41-0.34-0.75-0.75-0.75c-0.41,0-0.75,0.34-0.75,0.75v9.75
	C33.41,40.99,33.75,41.33,34.16,41.33z"/>
</svg>
