<?xml version="1.0" encoding="utf-8"?>
<!-- Generator: Adobe Illustrator 24.2.0, SVG Export Plug-In . SVG Version: 6.00 Build 0)  -->
<svg version="1.1" id="Camada_1" xmlns="http://www.w3.org/2000/svg" xmlns:xlink="http://www.w3.org/1999/xlink" x="0px" y="0px"
	 viewBox="0 0 78.67 69.89" style="enable-background:new 0 0 78.67 69.89;" xml:space="preserve">
<style type="text/css">
	.st0{clip-path:url(#SVGID_2_);}
	.st1{fill:#0A8B0D;}
</style>
<g>
	<defs>
		<rect id="SVGID_1_" x="28.33" y="23.94" width="22" height="22"/>
	</defs>
	<clipPath id="SVGID_2_">
		<use xlink:href="#SVGID_1_"  style="overflow:visible;"/>
	</clipPath>
	<g class="st0">
		<path class="st1" d="M49.55,23.94H29.12c-0.43,0-0.79,0.35-0.79,0.79v3.93c0,0.22,0.09,0.43,0.26,0.58l7.6,6.84v9.08
			c0,0.43,0.35,0.79,0.79,0.79c0.12,0,0.24-0.03,0.35-0.08l4.71-2.36c0.27-0.13,0.43-0.41,0.43-0.7v-6.72l7.6-6.84
			c0.17-0.15,0.26-0.36,0.26-0.59v-3.93C50.34,24.3,49.98,23.94,49.55,23.94z M48.76,28.31l-7.6,6.84
			c-0.17,0.15-0.26,0.36-0.26,0.59v6.59l-3.14,1.57v-8.16c0-0.22-0.09-0.43-0.26-0.58l-7.6-6.84v-2.79h18.86V28.31z"/>
	</g>
</g>
</svg>
