<?xml version="1.0" encoding="utf-8"?>
<!-- Generator: Adobe Illustrator 24.2.0, SVG Export Plug-In . SVG Version: 6.00 Build 0)  -->
<svg version="1.1" id="Camada_1" xmlns="http://www.w3.org/2000/svg" xmlns:xlink="http://www.w3.org/1999/xlink" x="0px" y="0px"
	 viewBox="0 0 78.67 69.89" style="enable-background:new 0 0 78.67 69.89;" xml:space="preserve">
<style type="text/css">
	.st0{clip-path:url(#SVGID_2_);}
	.st1{fill:#F9EDE0;}
	.st2{fill:#D2E2D2;}
	.st3{fill:#398E3D;}
</style>
<g>
	<g>
		<defs>
			<rect id="SVGID_1_" x="20.83" y="16.44" width="37" height="37"/>
		</defs>
		<clipPath id="SVGID_2_">
			<use xlink:href="#SVGID_1_"  style="overflow:visible;"/>
		</clipPath>
		<g class="st0">
			<path class="st1" d="M45.22,52.48c-0.19,0.07-0.39,0.13-0.58,0.19C44.84,52.61,45.03,52.54,45.22,52.48z"/>
			<path class="st1" d="M46.19,52.13c-0.21,0.08-0.42,0.16-0.63,0.24C45.77,52.29,45.98,52.21,46.19,52.13z"/>
			<path class="st2" d="M39.33,53.44c10.22,0,18.5-8.28,18.5-18.5s-8.28-18.5-18.5-18.5s-18.5,8.28-18.5,18.5
				S29.11,53.44,39.33,53.44z"/>
			<path class="st1" d="M44.27,52.77c-0.19,0.05-0.38,0.1-0.57,0.15C43.89,52.87,44.08,52.83,44.27,52.77z"/>
			<path class="st1" d="M37.99,53.39c-0.23-0.02-0.45-0.03-0.67-0.06C37.54,53.36,37.76,53.37,37.99,53.39z"/>
			<path class="st1" d="M34.97,52.92c-0.19-0.05-0.38-0.1-0.57-0.15C34.58,52.83,34.77,52.87,34.97,52.92z"/>
			<path class="st1" d="M36.93,53.28c-0.2-0.03-0.4-0.05-0.6-0.09C36.53,53.23,36.73,53.26,36.93,53.28z"/>
			<path class="st1" d="M39.33,53.44c-0.34,0-0.68-0.01-1.01-0.03C38.65,53.43,38.99,53.44,39.33,53.44z"/>
			<path class="st1" d="M35.94,53.13c-0.19-0.04-0.39-0.07-0.58-0.12C35.55,53.05,35.74,53.09,35.94,53.13z"/>
			<path class="st1" d="M32.2,52.02c-0.29-0.12-0.57-0.25-0.85-0.38C31.63,51.77,31.92,51.9,32.2,52.02z"/>
			<path class="st1" d="M33.1,52.37c-0.21-0.08-0.42-0.16-0.63-0.24C32.68,52.21,32.89,52.29,33.1,52.37z"/>
			<path class="st1" d="M40.35,53.42c-0.34,0.02-0.67,0.03-1.01,0.03C39.67,53.44,40.01,53.43,40.35,53.42z"/>
			<path class="st1" d="M41.34,53.33c-0.22,0.02-0.45,0.04-0.67,0.06C40.9,53.37,41.12,53.36,41.34,53.33z"/>
			<path class="st1" d="M43.31,53.01c-0.19,0.04-0.38,0.08-0.58,0.12C42.92,53.09,43.11,53.05,43.31,53.01z"/>
			<path class="st1" d="M42.33,53.2c-0.2,0.03-0.4,0.06-0.6,0.09C41.93,53.26,42.13,53.23,42.33,53.2z"/>
			<path class="st1" d="M47.31,51.64c-0.28,0.13-0.56,0.26-0.85,0.38C46.75,51.9,47.03,51.77,47.31,51.64z"/>
			<path class="st1" d="M34.02,52.67c-0.2-0.06-0.39-0.12-0.58-0.19C33.63,52.55,33.83,52.61,34.02,52.67z"/>
			<path class="st1" d="M46.46,52.02c-0.09,0.04-0.18,0.07-0.27,0.11C46.28,52.09,46.37,52.06,46.46,52.02z"/>
			<path class="st1" d="M47.33,51.63c-0.01,0-0.02,0.01-0.03,0.01C47.32,51.64,47.33,51.63,47.33,51.63z"/>
			<path class="st1" d="M35.36,53.01c-0.13-0.03-0.26-0.06-0.39-0.09C35.1,52.95,35.23,52.98,35.36,53.01z"/>
			<path class="st1" d="M36.33,53.2c-0.13-0.02-0.26-0.05-0.39-0.07C36.07,53.15,36.2,53.18,36.33,53.2z"/>
			<path class="st1" d="M38.32,53.42c-0.11-0.01-0.22-0.02-0.33-0.02C38.1,53.4,38.21,53.41,38.32,53.42z"/>
			<path class="st1" d="M37.32,53.33c-0.13-0.01-0.26-0.03-0.38-0.05C37.06,53.3,37.19,53.32,37.32,53.33z"/>
			<path class="st1" d="M31.35,51.64c-0.01,0-0.02-0.01-0.02-0.01C31.34,51.63,31.34,51.64,31.35,51.64z"/>
			<path class="st1" d="M40.67,53.39c-0.11,0.01-0.22,0.02-0.33,0.02C40.45,53.41,40.56,53.4,40.67,53.39z"/>
			<path class="st1" d="M44.64,52.67c-0.12,0.04-0.25,0.07-0.37,0.11C44.39,52.74,44.52,52.7,44.64,52.67z"/>
			<path class="st1" d="M45.56,52.37c-0.11,0.04-0.23,0.08-0.34,0.11C45.33,52.44,45.45,52.41,45.56,52.37z"/>
			<path class="st1" d="M32.47,52.13c-0.09-0.04-0.18-0.07-0.27-0.11C32.29,52.06,32.38,52.09,32.47,52.13z"/>
			<path class="st1" d="M33.44,52.48c-0.11-0.04-0.23-0.07-0.34-0.11C33.21,52.41,33.33,52.44,33.44,52.48z"/>
			<path class="st1" d="M41.73,53.28c-0.13,0.02-0.25,0.04-0.38,0.05C41.47,53.32,41.6,53.3,41.73,53.28z"/>
			<path class="st1" d="M43.7,52.92c-0.13,0.03-0.26,0.06-0.39,0.09C43.44,52.98,43.57,52.95,43.7,52.92z"/>
			<path class="st1" d="M42.73,53.13c-0.13,0.02-0.26,0.05-0.39,0.07C42.46,53.18,42.59,53.15,42.73,53.13z"/>
			<path class="st1" d="M34.4,52.77c-0.12-0.03-0.25-0.07-0.37-0.11C34.15,52.7,34.27,52.74,34.4,52.77z"/>
			<path class="st3" d="M43.57,36.22c2.06-1.37,3.42-3.71,3.42-6.38c0-4.23-3.43-7.66-7.66-7.66s-7.66,3.43-7.66,7.66
				c0,2.66,1.36,5,3.42,6.38l0,0l0,0c-4.93,1.49-8.78,5.49-10.01,10.53l0,0c0.2,0.24,0.41,0.48,0.62,0.71
				c0.05,0.06,0.11,0.11,0.16,0.17c0.16,0.17,0.33,0.35,0.5,0.52c0.07,0.07,0.14,0.14,0.21,0.2c0.16,0.15,0.32,0.3,0.48,0.44
				c0.08,0.07,0.16,0.14,0.24,0.21c0.16,0.14,0.32,0.27,0.49,0.4c0.09,0.07,0.17,0.14,0.26,0.21c0.17,0.13,0.34,0.25,0.51,0.38
				c0.09,0.06,0.18,0.13,0.27,0.19c0.18,0.12,0.37,0.24,0.55,0.36c0.08,0.05,0.17,0.11,0.25,0.16c0.21,0.13,0.43,0.26,0.65,0.38
				c0.06,0.03,0.11,0.07,0.17,0.1c0.28,0.16,0.57,0.3,0.87,0.45c0.01,0,0.01,0.01,0.02,0.01c0.28,0.13,0.56,0.26,0.85,0.38
				c0.09,0.04,0.18,0.07,0.27,0.11c0.21,0.08,0.42,0.16,0.63,0.24c0.11,0.04,0.23,0.08,0.34,0.11c0.19,0.07,0.39,0.13,0.58,0.19
				c0.12,0.04,0.25,0.07,0.37,0.11c0.19,0.05,0.38,0.1,0.57,0.15c0.13,0.03,0.26,0.06,0.39,0.09c0.19,0.04,0.38,0.08,0.58,0.12
				c0.13,0.02,0.26,0.05,0.39,0.07c0.2,0.03,0.4,0.06,0.6,0.09c0.13,0.02,0.25,0.03,0.38,0.05c0.22,0.02,0.45,0.04,0.67,0.06
				c0.11,0.01,0.22,0.02,0.33,0.02c0.34,0.02,0.67,0.03,1.01,0.03s0.68-0.01,1.01-0.03c0.11-0.01,0.22-0.02,0.33-0.02
				c0.23-0.02,0.45-0.03,0.67-0.06c0.13-0.01,0.26-0.03,0.38-0.05c0.2-0.03,0.4-0.05,0.6-0.09c0.13-0.02,0.26-0.05,0.39-0.07
				c0.19-0.04,0.39-0.07,0.58-0.12c0.13-0.03,0.26-0.06,0.39-0.09c0.19-0.05,0.38-0.1,0.57-0.15c0.12-0.03,0.25-0.07,0.37-0.11
				c0.2-0.06,0.39-0.12,0.58-0.19c0.11-0.04,0.23-0.07,0.34-0.11c0.21-0.08,0.42-0.16,0.63-0.24c0.09-0.04,0.18-0.07,0.27-0.11
				c0.29-0.12,0.57-0.25,0.85-0.38c0.01,0,0.02-0.01,0.03-0.01c0.29-0.14,0.58-0.29,0.87-0.45c0.06-0.03,0.12-0.07,0.17-0.1
				c0.22-0.12,0.44-0.25,0.65-0.38c0.08-0.05,0.17-0.11,0.25-0.16c0.19-0.12,0.37-0.24,0.55-0.36c0.09-0.06,0.18-0.13,0.27-0.19
				c0.17-0.12,0.34-0.25,0.51-0.38c0.09-0.07,0.17-0.14,0.26-0.21c0.16-0.13,0.33-0.27,0.49-0.4c0.08-0.07,0.16-0.14,0.24-0.21
				c0.16-0.14,0.32-0.29,0.48-0.44c0.07-0.07,0.14-0.14,0.22-0.2c0.17-0.17,0.34-0.34,0.5-0.52c0.05-0.06,0.11-0.11,0.16-0.17
				c0.21-0.23,0.42-0.47,0.62-0.71l0,0C52.34,41.71,48.5,37.7,43.57,36.22z"/>
		</g>
	</g>
</g>
</svg>
