<?xml version="1.0" encoding="utf-8"?>
<!-- Generator: Adobe Illustrator 24.2.0, SVG Export Plug-In . SVG Version: 6.00 Build 0)  -->
<svg version="1.1" id="Camada_1" xmlns="http://www.w3.org/2000/svg" xmlns:xlink="http://www.w3.org/1999/xlink" x="0px" y="0px"
	 viewBox="0 0 78.67 69.89" style="enable-background:new 0 0 78.67 69.89;" xml:space="preserve">
<style type="text/css">
	.st0{clip-path:url(#SVGID_2_);}
	.st1{fill:#F9EDE0;}
	.st2{fill:none;stroke:#108C38;stroke-width:2;}
</style>
<g>
	<defs>
		<rect id="SVGID_1_" x="21.53" y="16.66" width="35" height="35"/>
	</defs>
	<clipPath id="SVGID_2_">
		<use xlink:href="#SVGID_1_"  style="overflow:visible;"/>
	</clipPath>
	<g class="st0">
		<path class="st1" d="M44.6,50.75c-0.18,0.06-0.37,0.12-0.55,0.18C44.24,50.87,44.42,50.81,44.6,50.75z"/>
		<path class="st1" d="M45.51,50.41c-0.2,0.08-0.39,0.16-0.59,0.23C45.12,50.57,45.32,50.49,45.51,50.41z"/>
		<path class="st2" d="M55.53,34.16c0,9.11-7.39,16.5-16.5,16.5s-16.5-7.39-16.5-16.5s7.39-16.5,16.5-16.5S55.53,25.05,55.53,34.16z
			"/>
		<path class="st1" d="M43.7,51.03c-0.18,0.05-0.36,0.1-0.54,0.14C43.34,51.12,43.52,51.07,43.7,51.03z"/>
		<path class="st1" d="M37.76,51.61c-0.21-0.02-0.43-0.03-0.64-0.05C37.33,51.58,37.55,51.59,37.76,51.61z"/>
		<path class="st1" d="M34.9,51.17c-0.18-0.04-0.36-0.09-0.54-0.14C34.54,51.07,34.72,51.12,34.9,51.17z"/>
		<path class="st1" d="M36.76,51.51c-0.19-0.02-0.38-0.05-0.57-0.08C36.38,51.46,36.57,51.48,36.76,51.51z"/>
		<path class="st1" d="M39.03,51.66c-0.32,0-0.64-0.01-0.96-0.03C38.39,51.65,38.7,51.66,39.03,51.66z"/>
		<path class="st1" d="M35.82,51.36c-0.18-0.03-0.37-0.07-0.55-0.11C35.45,51.29,35.63,51.33,35.82,51.36z"/>
		<path class="st1" d="M32.29,50.31c-0.27-0.11-0.54-0.23-0.81-0.36C31.75,50.08,32.01,50.2,32.29,50.31z"/>
		<path class="st1" d="M33.13,50.64c-0.2-0.07-0.4-0.15-0.59-0.23C32.74,50.49,32.93,50.57,33.13,50.64z"/>
		<path class="st1" d="M39.99,51.63c-0.32,0.02-0.64,0.03-0.96,0.03C39.35,51.66,39.67,51.65,39.99,51.63z"/>
		<path class="st1" d="M40.93,51.56c-0.21,0.02-0.42,0.04-0.64,0.05C40.51,51.59,40.72,51.58,40.93,51.56z"/>
		<path class="st1" d="M42.79,51.25c-0.18,0.04-0.36,0.08-0.55,0.11C42.42,51.33,42.61,51.29,42.79,51.25z"/>
		<path class="st1" d="M41.87,51.43c-0.19,0.03-0.38,0.06-0.57,0.08C41.49,51.48,41.68,51.46,41.87,51.43z"/>
		<path class="st1" d="M46.57,49.95c-0.26,0.13-0.53,0.25-0.8,0.36C46.04,50.2,46.31,50.08,46.57,49.95z"/>
		<path class="st1" d="M34.01,50.93c-0.19-0.06-0.37-0.12-0.55-0.18C33.64,50.81,33.82,50.87,34.01,50.93z"/>
		<path class="st1" d="M45.77,50.31c-0.08,0.04-0.17,0.07-0.26,0.1C45.6,50.38,45.68,50.35,45.77,50.31z"/>
		<path class="st1" d="M46.6,49.94c-0.01,0-0.02,0.01-0.03,0.01C46.58,49.95,46.59,49.95,46.6,49.94z"/>
		<path class="st1" d="M35.27,51.25c-0.12-0.03-0.25-0.06-0.37-0.09C35.02,51.2,35.14,51.22,35.27,51.25z"/>
		<path class="st1" d="M36.19,51.43c-0.12-0.02-0.25-0.04-0.37-0.07C35.94,51.38,36.06,51.41,36.19,51.43z"/>
		<path class="st1" d="M38.07,51.63c-0.1-0.01-0.21-0.02-0.31-0.02C37.86,51.62,37.96,51.63,38.07,51.63z"/>
		<path class="st1" d="M37.12,51.56c-0.12-0.01-0.24-0.03-0.36-0.05C36.88,51.52,37,51.54,37.12,51.56z"/>
		<path class="st1" d="M31.48,49.95c-0.01,0-0.01-0.01-0.02-0.01C31.47,49.95,31.47,49.95,31.48,49.95z"/>
		<path class="st1" d="M40.3,51.61c-0.1,0.01-0.21,0.02-0.31,0.02C40.09,51.63,40.19,51.62,40.3,51.61z"/>
		<path class="st1" d="M44.05,50.93c-0.12,0.03-0.23,0.07-0.35,0.1C43.81,50.99,43.93,50.96,44.05,50.93z"/>
		<path class="st1" d="M44.92,50.64c-0.11,0.04-0.21,0.07-0.32,0.11C44.71,50.71,44.81,50.68,44.92,50.64z"/>
		<path class="st1" d="M32.54,50.41c-0.09-0.03-0.17-0.07-0.26-0.1C32.37,50.35,32.46,50.38,32.54,50.41z"/>
		<path class="st1" d="M33.45,50.75c-0.11-0.04-0.21-0.07-0.32-0.11C33.24,50.68,33.35,50.71,33.45,50.75z"/>
		<path class="st1" d="M41.29,51.51c-0.12,0.02-0.24,0.03-0.36,0.05C41.05,51.54,41.17,51.52,41.29,51.51z"/>
		<path class="st1" d="M43.16,51.17c-0.12,0.03-0.25,0.06-0.37,0.09C42.91,51.22,43.03,51.2,43.16,51.17z"/>
		<path class="st1" d="M42.24,51.36c-0.12,0.02-0.25,0.05-0.37,0.07C41.99,51.41,42.11,51.38,42.24,51.36z"/>
		<path class="st1" d="M34.36,51.03c-0.12-0.03-0.24-0.07-0.35-0.1C34.12,50.96,34.24,50.99,34.36,51.03z"/>
		<path class="st2" d="M30.85,49.13 M30.65,47.85 M29.12,46.76 M41.08,35.41l1.77-1.18c1.68-1.12,2.79-3.03,2.79-5.2
			c0-3.45-2.79-6.24-6.24-6.24c-3.45,0-6.24,2.79-6.24,6.24c0,2.15,1.08,4.04,2.74,5.17l2.19,1.1l-2.41,0.73
			c-4.17,1.26-7.45,4.56-8.66,8.75c0.07,0.08,0.15,0.17,0.23,0.25l0,0c0.02,0.03,0.04,0.04,0.06,0.07c0.02,0.02,0.04,0.04,0.07,0.07
			l0,0h0"/>
	</g>
</g>
<path class="st2" d="M51.33,45.06c-1.21-4.19-4.49-7.49-8.66-8.75l-2.41-0.73l2.19-1.1"/>
</svg>
