<?xml version="1.0" encoding="utf-8"?>
<!-- Generator: Adobe Illustrator 24.2.0, SVG Export Plug-In . SVG Version: 6.00 Build 0)  -->
<svg version="1.1" id="Camada_1" xmlns="http://www.w3.org/2000/svg" xmlns:xlink="http://www.w3.org/1999/xlink" x="0px" y="0px"
	 viewBox="0 0 78.67 69.89" style="enable-background:new 0 0 78.67 69.89;" xml:space="preserve">
<style type="text/css">
	.st0{clip-path:url(#SVGID_2_);}
	.st1{fill:#C4C4C4;}
	.st2{fill:#ADADAD;}
</style>
<g>
	<defs>
		<rect id="SVGID_1_" x="21.83" y="17.44" width="35" height="35"/>
	</defs>
	<clipPath id="SVGID_2_">
		<use xlink:href="#SVGID_1_"  style="overflow:visible;"/>
	</clipPath>
	<g class="st0">
		<path class="st1" d="M56.59,38.84c-0.16,0.41-0.42,0.78-0.74,1.08l-0.04,0.04c-0.56,0.53-1.31,0.82-2.09,0.82h-4.17
			c-0.25,0-0.48-0.13-0.61-0.34l-0.7-1.12l-2.95-4.71c-0.11-0.17-0.15-0.38-0.09-0.57c0.04-0.2,0.17-0.37,0.35-0.47l6.56-3.65
			c0.36-0.19,0.79-0.06,0.99,0.29l3.38,6.04C56.91,37.06,56.95,38.01,56.59,38.84z"/>
		<path class="st1" d="M40.88,23.41l-0.61,0.86l-3.25,4.54c-0.14,0.19-0.36,0.31-0.6,0.31c-0.12,0-0.24-0.03-0.35-0.09l-8.02-4.37
			c-0.19-0.1-0.32-0.27-0.36-0.48c-0.05-0.21,0-0.43,0.13-0.6l3.12-4.16c0.12-0.17,0.26-0.33,0.41-0.48
			c0.88-0.93,2.09-1.46,3.37-1.49c0.07,0,0.14,0,0.2,0.01c1.56,0.05,3,0.83,3.89,2.11l2.07,3C41.06,22.83,41.06,23.16,40.88,23.41z"
			/>
		<path class="st1" d="M36.19,37.67c-0.22,0.2-0.55,0.25-0.82,0.12l-2.27-1.14l-1.33,2.67l-0.52,1.05c-0.13,0.25-0.38,0.4-0.66,0.41
			h-5.63c-0.78,0.01-1.54-0.29-2.1-0.83l-0.03-0.03c-0.34-0.31-0.6-0.69-0.77-1.11c-0.22-0.57-0.27-1.19-0.15-1.79
			c0.06-0.26,0.14-0.51,0.26-0.74l2.42-4.83l-2.54-2.55c-0.22-0.2-0.28-0.52-0.16-0.79c0.11-0.27,0.38-0.45,0.67-0.45h9.48
			c0.29,0,0.56,0.18,0.67,0.45l3.65,8.75C36.47,37.14,36.41,37.46,36.19,37.67z"/>
		<path class="st2" d="M36.42,40.05v8.75c0,0.4-0.33,0.73-0.73,0.73h-3.54c-1.67,0-3.24-0.82-4.19-2.2
			c-0.2-0.29-0.38-0.55-0.54-0.79l-0.06-0.06c0.01,0-0.28-0.41-0.55-0.82c-0.13-0.17-0.23-0.35-0.34-0.48
			c-0.38-0.55-0.58-0.83-0.5-0.71c-0.07-0.12-0.15-0.2-0.17-0.26l-0.01-0.01c-0.06-0.09-0.08-0.12-0.08-0.12l-0.02-0.02l-0.01-0.03
			c-1.02-1.47-1.97-2.84-2.81-4.07l-0.03-0.03c-0.28-0.38-0.52-0.76-0.77-1.11c-0.22-0.57-0.27-1.19-0.15-1.79l1.97,1.88
			c0.29,0.28,0.68,0.43,1.08,0.42h10.73C36.09,39.32,36.42,39.64,36.42,40.05z"/>
		<path class="st2" d="M52.4,21.37l-3.65,8.75c-0.11,0.27-0.38,0.45-0.67,0.45c-0.04,0-0.09,0-0.13-0.01l-8.02-1.46
			c-0.31-0.06-0.54-0.31-0.6-0.61c-0.04-0.31,0.12-0.62,0.41-0.76l2.16-1.08l-1.63-2.38l-2.65-3.88c-0.64-0.91-1.69-1.46-2.8-1.46
			h-3.47c0.72-0.76,1.68-1.27,2.71-1.43l0.66-0.04h0.2l9.42-0.01c1.22-0.01,2.37,0.6,3.05,1.62l1.68,2.54l2.35-1.17
			c0.27-0.13,0.59-0.09,0.82,0.12C52.45,20.76,52.52,21.08,52.4,21.37z"/>
		<path class="st2" d="M56.59,38.84l-0.69,0.99l-0.06,0.09l-0.04,0.04l-5.07,7.36c-0.95,1.38-2.52,2.21-4.2,2.2h-1.36v2.19
			c0,0.3-0.19,0.57-0.47,0.69c-0.08,0.03-0.17,0.04-0.26,0.04c-0.21,0-0.41-0.09-0.54-0.25l-5.83-6.56
			c-0.23-0.25-0.25-0.63-0.04-0.9l5.83-8.02c0.18-0.26,0.5-0.37,0.8-0.28c0.31,0.1,0.51,0.38,0.51,0.7v2.19h8.55
			c0.4,0.01,0.79-0.14,1.08-0.42l1.97-1.88C56.9,37.63,56.84,38.26,56.59,38.84z"/>
	</g>
</g>
</svg>
