<?xml version="1.0" encoding="utf-8"?>
<!-- Generator: Adobe Illustrator 24.2.0, SVG Export Plug-In . SVG Version: 6.00 Build 0)  -->
<svg version="1.1" id="Camada_1" xmlns="http://www.w3.org/2000/svg" xmlns:xlink="http://www.w3.org/1999/xlink" x="0px" y="0px"
	 viewBox="0 0 78.67 69.89" style="enable-background:new 0 0 78.67 69.89;" xml:space="preserve">
<style type="text/css">
	.st0{clip-path:url(#SVGID_2_);}
	.st1{fill:#4CAF50;}
	.st2{fill:#388E3C;}
</style>
<g>
	<defs>
		<rect id="SVGID_1_" x="21.83" y="17.3" width="35" height="35.3"/>
	</defs>
	<clipPath id="SVGID_2_">
		<use xlink:href="#SVGID_1_"  style="overflow:visible;"/>
	</clipPath>
	<g class="st0">
		<path class="st1" d="M56.59,38.87c-0.16,0.42-0.42,0.79-0.74,1.09L55.8,40c-0.56,0.53-1.31,0.83-2.09,0.82h-4.17
			c-0.25,0-0.48-0.13-0.61-0.34l-0.7-1.13l-2.95-4.75c-0.11-0.17-0.15-0.38-0.09-0.57c0.04-0.2,0.17-0.37,0.35-0.47l6.56-3.68
			c0.36-0.19,0.79-0.06,0.99,0.29l3.38,6.09C56.91,37.08,56.95,38.03,56.59,38.87z"/>
		<path class="st1" d="M40.88,23.31l-0.61,0.87l-3.25,4.57c-0.14,0.2-0.36,0.31-0.6,0.31c-0.12,0-0.24-0.03-0.35-0.09l-8.02-4.41
			c-0.19-0.1-0.32-0.28-0.36-0.49c-0.05-0.21,0-0.43,0.13-0.6l3.12-4.19c0.12-0.17,0.26-0.33,0.41-0.49
			c0.88-0.93,2.09-1.47,3.37-1.5c0.07,0,0.14,0,0.2,0.01c1.56,0.05,3,0.84,3.89,2.13l2.07,3.03C41.06,22.73,41.06,23.06,40.88,23.31
			z"/>
		<path class="st1" d="M36.19,37.7c-0.22,0.21-0.55,0.25-0.82,0.12l-2.27-1.15l-1.33,2.69l-0.53,1.06
			c-0.13,0.25-0.38,0.41-0.66,0.41h-5.63c-0.78,0.01-1.54-0.29-2.1-0.84l-0.03-0.03c-0.34-0.31-0.6-0.69-0.77-1.12
			c-0.22-0.58-0.27-1.2-0.15-1.81c0.06-0.26,0.14-0.51,0.26-0.75l2.42-4.87l-2.54-2.57c-0.22-0.2-0.28-0.52-0.16-0.79
			c0.11-0.27,0.38-0.45,0.67-0.46h9.48c0.29,0,0.56,0.18,0.67,0.46l3.65,8.82C36.48,37.16,36.41,37.48,36.19,37.7z"/>
		<path class="st2" d="M36.42,40.09v8.82c0,0.41-0.33,0.74-0.73,0.74h-3.54c-1.67,0-3.24-0.83-4.19-2.22
			c-0.2-0.29-0.38-0.56-0.54-0.79l-0.06-0.06c0.01,0-0.28-0.41-0.55-0.82c-0.13-0.18-0.23-0.35-0.34-0.49
			c-0.38-0.56-0.58-0.84-0.5-0.72c-0.07-0.12-0.15-0.21-0.17-0.26l-0.01-0.01c-0.06-0.09-0.08-0.12-0.08-0.12l-0.02-0.02l-0.01-0.03
			c-1.02-1.49-1.97-2.87-2.81-4.1l-0.03-0.03c-0.28-0.38-0.52-0.76-0.77-1.12c-0.22-0.58-0.27-1.2-0.15-1.81l1.97,1.9
			c0.29,0.28,0.68,0.44,1.08,0.43h10.73C36.09,39.36,36.42,39.69,36.42,40.09z"/>
		<path class="st2" d="M52.4,21.25l-3.65,8.82c-0.11,0.27-0.38,0.45-0.67,0.46c-0.04,0-0.09,0-0.13-0.01l-8.02-1.47
			c-0.31-0.06-0.54-0.31-0.6-0.62c-0.04-0.32,0.12-0.63,0.41-0.76l2.16-1.09l-1.63-2.4l-2.65-3.91c-0.64-0.92-1.69-1.47-2.8-1.47
			h-3.47c0.72-0.77,1.68-1.28,2.71-1.44l0.66-0.04h0.2l9.42-0.01c1.22-0.01,2.37,0.61,3.05,1.63l1.68,2.56l2.35-1.18
			c0.27-0.13,0.59-0.09,0.82,0.12C52.45,20.64,52.52,20.97,52.4,21.25z"/>
		<path class="st2" d="M56.59,38.87l-0.69,1l-0.06,0.09L55.8,40l-5.07,7.43c-0.95,1.39-2.52,2.22-4.2,2.22h-1.36v2.21
			c0,0.3-0.19,0.58-0.47,0.69c-0.08,0.03-0.17,0.04-0.26,0.04c-0.21,0-0.41-0.09-0.54-0.25l-5.83-6.62
			c-0.23-0.25-0.25-0.64-0.04-0.91l5.83-8.09c0.18-0.26,0.5-0.37,0.8-0.28c0.31,0.1,0.51,0.38,0.51,0.71v2.21h8.55
			c0.4,0.01,0.79-0.14,1.08-0.43l1.97-1.9C56.9,37.65,56.84,38.29,56.59,38.87z"/>
	</g>
</g>
</svg>
