<?xml version="1.0" encoding="utf-8"?>
<!-- Generator: Adobe Illustrator 24.2.0, SVG Export Plug-In . SVG Version: 6.00 Build 0)  -->
<svg version="1.1" id="Camada_1" xmlns="http://www.w3.org/2000/svg" xmlns:xlink="http://www.w3.org/1999/xlink" x="0px" y="0px"
	 viewBox="0 0 78.67 69.89" style="enable-background:new 0 0 78.67 69.89;" xml:space="preserve">
<style type="text/css">
	.st0{clip-path:url(#SVGID_2_);}
	.st1{fill:#108C38;}
</style>
<g>
	<defs>
		<rect id="SVGID_1_" x="20.03" y="15.68" width="38" height="38"/>
	</defs>
	<clipPath id="SVGID_2_">
		<use xlink:href="#SVGID_1_"  style="overflow:visible;"/>
	</clipPath>
	<g class="st0">
		<path class="st1" d="M42.52,20.25c-0.4-0.1-0.8,0.15-0.9,0.55c-0.1,0.4,0.15,0.8,0.55,0.9c6.02,1.45,10.22,6.79,10.22,12.99
			c0,7.37-5.99,13.36-13.36,13.36c-7.37,0-13.36-5.99-13.36-13.36c0-6.2,4.2-11.54,10.22-12.99c0.4-0.1,0.64-0.5,0.55-0.9
			c-0.1-0.4-0.5-0.64-0.9-0.55c-3.18,0.77-6.07,2.61-8.12,5.18c-2.12,2.65-3.23,5.85-3.23,9.25c0,8.18,6.66,14.84,14.84,14.84
			c8.18,0,14.84-6.66,14.84-14.84c0-3.4-1.12-6.6-3.23-9.25C48.58,22.86,45.7,21.02,42.52,20.25z"/>
		<path class="st1" d="M57.58,32.89l-0.87-1.62l0.14-2c0.14-1.28-0.37-2.54-1.37-3.35l-1.44-1.18l-0.57-1.71
			c-0.32-1.31-1.31-2.36-2.6-2.74l-1.78-0.54l-1.36-1.57c-0.81-0.95-2.03-1.44-3.26-1.32l-1.85,0.18l-1.82-0.91
			c-1.12-0.6-2.45-0.6-3.57,0l-1.62,0.87l-2-0.14c-1.28-0.14-2.54,0.37-3.35,1.37l-1.18,1.44l-1.71,0.57
			c-1.31,0.32-2.36,1.31-2.74,2.6L24.1,24.6l-1.58,1.36c-0.95,0.81-1.44,2.03-1.32,3.26l0.18,1.85l-0.91,1.82
			c-0.6,1.12-0.6,2.45,0,3.57l0.87,1.62l-0.14,2c-0.14,1.28,0.37,2.54,1.37,3.35l1.44,1.18l0.57,1.71c0.32,1.31,1.31,2.36,2.6,2.74
			l1.78,0.54l1.36,1.58c0.81,0.95,2.03,1.44,3.26,1.32l1.85-0.18l1.81,0.91c0.56,0.3,1.17,0.45,1.79,0.45
			c0.61,0,1.23-0.15,1.79-0.45l1.62-0.87l2,0.14c1.28,0.14,2.54-0.37,3.35-1.37l1.18-1.44l1.71-0.57c1.31-0.32,2.36-1.31,2.74-2.6
			l0.54-1.78l1.57-1.36c0.95-0.81,1.44-2.03,1.32-3.26l-0.18-1.85l0.91-1.81C58.18,35.35,58.18,34.01,57.58,32.89z M56.27,35.77
			c0,0.01-0.01,0.01-0.01,0.02l-1.01,2.02c-0.06,0.13-0.09,0.27-0.08,0.41l0.21,2.06c0.07,0.75-0.23,1.5-0.81,1.99l-1.74,1.51
			c-0.11,0.09-0.18,0.21-0.22,0.35L52,46.1c-0.24,0.79-0.89,1.4-1.69,1.59c-0.02,0.01-0.04,0.01-0.07,0.02l-1.94,0.64
			c-0.13,0.04-0.25,0.13-0.34,0.23l-1.32,1.61c-0.5,0.61-1.27,0.92-2.05,0.83c-0.01,0-0.02,0-0.03,0l-2.23-0.16
			c-0.14-0.01-0.28,0.02-0.4,0.09l-1.81,0.97c-0.68,0.36-1.5,0.36-2.18,0c-0.01,0-0.01-0.01-0.02-0.01L35.9,50.9
			c-0.1-0.05-0.22-0.08-0.33-0.08c-0.02,0-0.05,0-0.07,0l-2.06,0.21c-0.75,0.07-1.5-0.23-1.99-0.81l-1.51-1.74
			c-0.09-0.11-0.21-0.18-0.35-0.22l-1.98-0.6c-0.79-0.24-1.4-0.89-1.59-1.69C26.01,45.93,26,45.91,26,45.89l-0.64-1.94
			c-0.04-0.13-0.13-0.25-0.23-0.34l-1.61-1.32c-0.61-0.5-0.92-1.27-0.83-2.05c0-0.01,0-0.02,0-0.03l0.16-2.23
			c0.01-0.14-0.02-0.28-0.09-0.4l-0.97-1.81c-0.36-0.68-0.36-1.5,0-2.18c0-0.01,0.01-0.01,0.01-0.02l1.01-2.02
			c0.06-0.13,0.09-0.27,0.08-0.41l-0.21-2.06c-0.07-0.75,0.23-1.5,0.81-1.99l1.74-1.51c0.11-0.09,0.18-0.21,0.22-0.35l0.6-1.98
			c0.24-0.79,0.89-1.4,1.7-1.59c0.02-0.01,0.04-0.01,0.07-0.02L29.76,21c0.13-0.04,0.25-0.13,0.34-0.23l1.32-1.61
			c0.5-0.61,1.27-0.92,2.05-0.83c0.01,0,0.02,0,0.03,0l2.23,0.16c0.14,0.01,0.28-0.02,0.4-0.09l1.81-0.97c0.68-0.36,1.5-0.36,2.18,0
			c0.01,0,0.01,0.01,0.02,0.01l2.02,1.01c0.13,0.06,0.27,0.09,0.41,0.08l2.06-0.21c0.75-0.07,1.5,0.23,1.99,0.81l1.51,1.74
			c0.09,0.11,0.21,0.18,0.35,0.22l1.99,0.6c0.79,0.24,1.4,0.89,1.59,1.69c0.01,0.02,0.01,0.04,0.02,0.07l0.64,1.94
			c0.04,0.13,0.13,0.25,0.23,0.34l1.61,1.32c0.61,0.5,0.92,1.27,0.83,2.05c0,0.01,0,0.02,0,0.03l-0.16,2.23
			c-0.01,0.14,0.02,0.28,0.09,0.4l0.97,1.81C56.63,34.28,56.63,35.09,56.27,35.77z"/>
		<path class="st1" d="M32.7,27.64l-3.07,4.64c-0.38,0.58-0.33,1.35,0.12,1.87l8.18,9.3c0.28,0.32,0.68,0.5,1.09,0.5h0
			c0.41,0,0.81-0.18,1.09-0.49c1.84-2.03,3.69-4.15,5.47-6.2c0.89-1.02,1.81-2.07,2.71-3.1c0.48-0.54,0.51-1.34,0.09-1.92
			l-3.09-4.67c-0.27-0.42-0.73-0.66-1.22-0.66H33.97C33.45,26.89,32.97,27.18,32.7,27.64z M35.04,33.87l2.32,6.67l-5.86-6.67H35.04z
			 M40.38,28.38l1.13,4.01h-4.96l1.13-4.01H40.38z M41.44,33.87l-2.42,6.95l-2.42-6.95H41.44z M44.47,36.27
			c-1.24,1.43-2.51,2.89-3.79,4.33l2.34-6.73h3.55C45.86,34.68,45.15,35.49,44.47,36.27z M46.71,32.39h-3.66l-1.13-4.01h2.14
			L46.71,32.39z M33.99,28.38h2.14L35,32.39h-3.66l2.61-3.95C33.97,28.42,33.98,28.4,33.99,28.38
			C33.99,28.38,33.99,28.38,33.99,28.38z"/>
		<path class="st1" d="M39.03,21.32c0.41,0,0.74-0.33,0.74-0.74c0-0.41-0.33-0.74-0.74-0.74h0c-0.41,0-0.74,0.33-0.74,0.74
			C38.29,20.99,38.62,21.32,39.03,21.32z"/>
	</g>
</g>
</svg>
